# xmcd CD database file
#
# Track frame offsets:
#	150
#	29017
#	54878
#	77149
#	95275
#	116051
#	137201
#	152675
#	174267
#	178680
#	186483
#	216445
#
# Disc length: 3181 seconds
#
# Revision: 1
# Processed by: cddbd v1.5.2PL0 Copyright (c) Steve Scherf et al.
# Submitted via: CDex 1.70beta2
#
DISCID=a60c6b0c
DTITLE=中川晃教 - himself
DYEAR=2004
DGENRE=
TTITLE0=焦らずに進めばいい
TTITLE1=WHAT ARE YOU AFRAID OF
TTITLE2=Don't change my soul
TTITLE3=SUNSHINE
TTITLE4=マタドール
TTITLE5=夜明けのセレナーデ
TTITLE6=White Shiny Street
TTITLE7=マイソング
TTITLE8=拡声器
TTITLE9=MATADOR(ヒムセルフ・ヴァージョン)
TTITLE10=善も悪もピースフル革命
TTITLE11=KING&QUEEN
EXTD=YEAR: 2004
EXTT0=
EXTT1=
EXTT2=
EXTT3=
EXTT4=
EXTT5=
EXTT6=
EXTT7=
EXTT8=
EXTT9=
EXTT10=
EXTT11=
PLAYORDER=
